<?xml version="1.0" encoding="utf-8"?>
<!-- Generator: Adobe Illustrator 28.2.0, SVG Export Plug-In . SVG Version: 6.00 Build 0)  -->
<svg version="1.1" id="svg2" xmlns:svg="http://www.w3.org/2000/svg"
	 xmlns="http://www.w3.org/2000/svg" xmlns:xlink="http://www.w3.org/1999/xlink" x="0px" y="0px" viewBox="0 0 113.4 113.6"
	 style="enable-background:new 0 0 113.4 113.6;" xml:space="preserve">
<g id="layer1" transform="translate(-64.928571,-41.284668)">
	<path id="path2320" d="M73,154.6c-1.8-0.4-3.9-1.5-5-2.6c-1.2-1.2-2-2.6-2.6-4.6l-0.5-1.6V98.4c0-44.4,0-47.6,0.3-48.8
		c0.8-3.3,2.7-5.7,5.3-7c2.9-1.4-0.6-1.3,51.1-1.3c51.5,0,48.3-0.1,51.1,1.3c2.6,1.3,4.4,3.7,5.2,7c0.3,1.5,0.4,3.8,0.4,48.9
		c0,44.3,0,47.5-0.3,48.7c-1,4-3.7,6.5-7.6,7.4C168.4,155,74.9,155,73,154.6z M165.4,96V63.1h-43.6H78.1V96v32.9h43.6h43.6V96z
		 M93.1,118.1c2.5-2.6,7.5-7.7,11-11.3l6.4-6.5l2.6,2.7c2.8,2.8,3.8,3.5,5.9,4.1c1.4,0.4,4,0.4,5.4,0c2-0.5,3-1.3,5.9-4l2.7-2.6
		l8.7,8.9c4.8,4.9,9.7,9.9,10.9,11.2l2.1,2.3h-33.2H88.6L93.1,118.1z M84.3,96l0-22.3l11,11.1l11,11.1l-5.9,6.1
		c-3.3,3.3-8.2,8.4-11,11.2l-5.1,5.2L84.3,96z M155.7,114.8c-1.8-1.9-6.7-6.9-10.9-11.1l-7.5-7.7l10.9-11l10.9-11l0,22.1
		c0,12.1,0,22.1-0.1,22.1S157.6,116.7,155.7,114.8z M120,100.8c-0.4-0.2-7.6-7.4-16-15.9L88.7,69.3l16.6-0.1c9.1,0,24.1,0,33.3,0
		l16.7,0.1L139.8,85c-9.5,9.5-15.8,15.8-16.2,15.9C122.7,101.3,120.8,101.2,120,100.8z"/>
</g>
</svg>
